<svg width="23" height="22" viewBox="0 0 23 22" fill="none" xmlns="http://www.w3.org/2000/svg">
<path d="M21.3759 11.2138C21.3759 10.4224 21.3104 9.84488 21.1686 9.246H11.9474V12.8179H17.36C17.251 13.7056 16.6617 15.0424 15.3521 15.9407L15.3338 16.0602L18.2493 18.2737L18.4513 18.2935C20.3065 16.6145 21.3759 14.144 21.3759 11.2138Z" fill="#4285F4"/>
<path d="M11.9468 20.625C14.5985 20.625 16.8247 19.7694 18.4507 18.2936L15.3515 15.9407C14.5222 16.5075 13.409 16.9032 11.9468 16.9032C9.34958 16.9032 7.14524 15.2242 6.35945 12.9035L6.24427 12.9131L3.21262 15.2125L3.17297 15.3205C4.78803 18.4646 8.10548 20.625 11.9468 20.625Z" fill="#34CAA5"/>
<path d="M6.36006 12.9036C6.15272 12.3047 6.03273 11.663 6.03273 11C6.03273 10.3369 6.15272 9.69523 6.34915 9.09635L6.34366 8.96881L3.274 6.63256L3.17357 6.67938C2.50792 7.98412 2.12598 9.44928 2.12598 11C2.12598 12.5507 2.50792 14.0158 3.17357 15.3205L6.36006 12.9036Z" fill="#FDCF24"/>
<path d="M11.9468 5.09664C13.791 5.09664 15.0351 5.87733 15.7444 6.52974L18.5162 3.8775C16.8139 2.32681 14.5986 1.375 11.9468 1.375C8.10551 1.375 4.78804 3.53526 3.17297 6.6794L6.34856 9.09638C7.14526 6.77569 9.34961 5.09664 11.9468 5.09664Z" fill="#EB4335"/>
</svg>
